<?xml version="1.0" encoding="UTF-8"?>
<svg id="Layer_2" data-name="Layer 2" xmlns="http://www.w3.org/2000/svg" viewBox="0 0 354.82 354.82">
  <defs>
    <style>
      .cls-1 {
        fill: #f1f2f2;
      }
    </style>
  </defs>
  <g id="Layer_1-2" data-name="Layer 1">
    <g>
      <path class="cls-1" d="M177.49,133.84c-24.03,0-43.57,19.55-43.57,43.57s19.55,43.57,43.57,43.57,43.57-19.55,43.57-43.57-19.54-43.57-43.57-43.57Z"/>
      <path class="cls-1" d="M233.96,70.29h-112.95c-28.09,0-50.94,22.85-50.94,50.94v112.37c0,28.08,22.85,50.94,50.94,50.94h112.95c28.09,0,50.95-22.86,50.95-50.94v-112.37c0-28.09-22.85-50.94-50.95-50.94ZM177.49,244.52c-37.01,0-67.11-30.1-67.11-67.11s30.11-67.11,67.11-67.11,67.11,30.1,67.11,67.11-30.11,67.11-67.11,67.11ZM247.42,123.08c-8.63,0-15.63-7-15.63-15.63s7-15.64,15.63-15.64,15.64,7,15.64,15.64-7,15.63-15.64,15.63Z"/>
      <path class="cls-1" d="M276.01,0H78.81C35.46,0,0,35.47,0,78.81v197.2c0,43.35,35.46,78.81,78.81,78.81h197.19c43.35,0,78.81-35.47,78.81-78.81V78.81c0-43.34-35.46-78.81-78.81-78.81ZM308.44,233.6c0,41.07-33.41,74.48-74.48,74.48h-112.95c-41.07,0-74.48-33.41-74.48-74.48v-112.37c0-41.07,33.42-74.48,74.48-74.48h112.95c41.07,0,74.48,33.41,74.48,74.48v112.37Z"/>
    </g>
  </g>
</svg>