<?xml version="1.0" encoding="UTF-8"?>
<svg id="Layer_2" data-name="Layer 2" xmlns="http://www.w3.org/2000/svg" viewBox="0 0 353.06 353.06">
  <defs>
    <style>
      .cls-1 {
        fill: #f1f2f2;
      }
    </style>
  </defs>
  <g id="Layer_1-2" data-name="Layer 1">
    <path class="cls-1" d="M327.48,0H26.63C12.22,0,0,11.39,0,25.4v302.24c0,14.04,8.03,25.43,22.4,25.43h300.88c14.41,0,29.78-11.39,29.78-25.43V25.4c0-14.01-11.17-25.4-25.58-25.4ZM100.88,302.62h-50.44v-168.12h50.44v168.12ZM75.65,107.18c-17.43,0-31.52-14.1-31.52-31.53s14.09-31.52,31.52-31.52,31.52,14.09,31.52,31.52-14.09,31.53-31.52,31.53ZM302.62,302.62h-50.44v-84.12c0-22.36-8.93-41.97-29.8-41.97-25.35,0-37.43,17.17-37.43,45.35v80.74h-50.44v-168.12h47.52v24.23h.52c7.24-13.08,28.66-26.34,55.1-26.34,50.8,0,64.97,26.97,64.97,76.91v93.32Z"/>
  </g>
</svg>