<?xml version="1.0" encoding="UTF-8"?>
<svg id="Layer_2" data-name="Layer 2" xmlns="http://www.w3.org/2000/svg" xmlns:xlink="http://www.w3.org/1999/xlink" viewBox="0 0 70.08 54.24">
  <defs>
    <style>
      .cls-1 {
        clip-path: url(#clippath-1);
      }

      .cls-2 {
        clip-path: url(#clippath-3);
      }

      .cls-3 {
        clip-path: url(#clippath-4);
      }

      .cls-4 {
        clip-path: url(#clippath-2);
      }

      .cls-5 {
        clip-path: url(#clippath-6);
      }

      .cls-6 {
        clip-path: url(#clippath-5);
      }

      .cls-7 {
        clip-rule: evenodd;
        fill: none;
      }

      .cls-8 {
        opacity: .71;
      }

      .cls-9 {
        clip-path: url(#clippath);
      }
    </style>
    <clipPath id="clippath">
      <path class="cls-7" d="M58.79,8.55c-.25-2.6-.47-6.16-2.86-7.63-2.28-1.41-5.41-1.02-8-.05-4.62,1.73-10.01,5.48-16.08,6.58-3.3.6-6.79.41-10.47-1.31,1.67.88,3.31,1.42,4.93,1.71,2.19.39,4.06.27,5.63.08,4.05-.5,7.54-1.67,16.5-4.58,2.36-.76,3.92-1.25,5.17-.55,1.49.84,1.57,3.02,1.67,5.06.14,2.61-.27,8.58-.43,9.15,0,.03-.06.19.02.25.04.03.11.02.32-.04.25-.07.37-.11.51-.15.06-.02.04,0,.36-.07.13-.03.08-.02.61-.13.36-.08.4-.08.46-.13,0,0,.05-.04.27-.31,0,0,.15-.26.31-.59.02-.03.03-.06.05-.1.06-.12.14-.32.25-.61,0,0,.26-.73.43-1.49.57-2.63.33-5.11.33-5.11ZM40.88,53.45c.01.14.07.22.18.18.1-.04-.07-.13-.18-.18h0Z"/>
    </clipPath>
    <clipPath id="clippath-1">
      <path class="cls-7" d="M18.35,52.63c-.15-.22-.26-.38-.32-.47,0,0-3.3-4.84-7.85-17.08-2.12-5.71-3.19-8.56-3.67-10.26-.45-1.58-5.71-20.08-.14-22.67,1.83-.85,3.02,1.5,8.38,2.24,8.6,1.19,14.46-1.39,20.01.47-4.78-1.88-10.01-.34-17.04-1.05-3.16-.32-6.69-1.1-10.72-2.9C4.43-.22,2.67,0,1.56.92.54,1.77.02,3.4,0,5.58c-.01,2.2.13,4.55,1.83,10.49.34,1.19,1.04,3.58,2.11,6.73,0,0,1.09,3.21,2.41,6.62,3.25,8.38,9.59,21.89,9.95,22.66,0,0,.53,1.09,1.48,1.84.35.28.68.36.93.33.24-.03.48-.13.65-.37.13-.18.25-.52.24-1.07,0-.89-.03-8.02,1.69-12.21,1.18-2.87,3.22-4.49,3.14-4.55-.08-.06-2.18,2-3.64,4.38-1.33,2.17-3,6.05-2.44,12.21Z"/>
    </clipPath>
    <clipPath id="clippath-2">
      <path class="cls-7" d="M38.79,42.18c.99.75,1.82,1.63,1.82,2.55,0,.56-.26,1.11-.99,1.67-1.06.82-2.91,1.57-5.56,2.22-2.02.49-3.54.78-4.37.78-.23,0-.43,0-.53-.07-.1-.03-.13-.1-.13-.2,0-.33.63-.88,1.46-1.57,1.62-1.31,4.54-3.14,8.31-5.39M42,29.13c-.03.13-.1.26-.17.39.03-.13.1-.26.17-.39ZM44.35,23.81c-.19,2.36-2.18,5.09-2.35,5.33.1-.1.25-.25.42-.44,1.32-1.44,3.6-3.91,3.59-6.78,0-.7-.1-2.77-1.51-3.85-2.7-2.05-8.17,1.58-9.88,2.72-3.75,2.5-8.97,6-8.74,11,.21,4.56,5.33,9.25,12.54,10.13-3.74,2.19-6.59,4.02-8.21,5.33-1.13.88-1.66,1.54-1.66,1.99,0,.09.11.19.26.39,0,0,.38.5.74.82.82.73,12.61-1.44,12.55-5.45-.01-.85-.55-1.94-2.63-3.21.66-.48,3.58-2.59,3.58-2.59,0,0-1.07.61-1.54.88-.58.34-1.41.81-2.43,1.41-4.04-2.94-11-5.17-11-9.77s4.6-7.94,7.25-9.74c2.05-1.4,6.56-3.87,8.15-2.39.2.19.32.41.38.57.17.5.35,1.16.44,1.95,0,0,.1.86.03,1.7Z"/>
    </clipPath>
    <clipPath id="clippath-3">
      <path class="cls-7" d="M70.08,39.13c-1.15-.07-2.84-.89-4.05-1.33-2.46-.91-5.7-1.89-8.95-2.2.63,5.3,1.82,10.25,4.27,11.6.35.18.63.27,1.01.48-.49.24-.57.27-1.08.17-2.98-.63-4.53-6.65-5.36-12.31-1.11-.03-2.21.02-3.27.21-1.32,4.53-2.94,8.69-4.8,10.85-1.46,1.67-3.74,2.55-4.75-.71-1.01-3.25.47-6.95,1.94-8.86,1.69-2.19,3.88-3.36,6.25-3.83,1.14-3.75,2.08-7.76,2.75-10.95.23-1.08.61-3.04,1.53-2.28.68.58.67,2.94.73,4.11.12,2.4.24,5.72.54,9.11,3.43.55,6.82,1.96,9.4,3.33,1.21.65,2.78,1.45,3.85,2.6h0ZM50.22,36.43c-1.31.53-2.5,1.33-3.51,2.48-.77.86-2.2,3.09-1.95,4.97.23,1.63,1.94-.44,2.25-.86,1.16-1.56,2.24-3.91,3.2-6.59h0ZM55.57,33.04c-.18-1.58-.32-3.04-.42-4.27-.07-.78-.12-1.69-.19-2.63-.43,2.14-.96,4.49-1.57,6.82.72-.01,1.45,0,2.17.08h0Z"/>
    </clipPath>
    <clipPath id="clippath-4">
      <path class="cls-7" d="M32.93,52.27c0-.17.02-.97.57-1.37.22-.16.47-.19.96-.25.74-.09,1.2-.14,1.43.15.24.28.26.78.1.88-.15.1-.37-.18-.86-.34-.41-.14-.78-.13-1.05-.1"/>
    </clipPath>
    <clipPath id="clippath-5">
      <path class="cls-7" d="M4.64,9.33c-.08,0-.17-.96-.07-2.05.08-.88.17-1.32.24-1.55.09-.28.21-.7.51-1.18.26-.42.55-.91,1.1-1.2.92-.48,2-.2,2.92.02,1.16.29,2.01.78,1.98.83-.02.05-.84-.31-2.17-.51-1.21-.19-1.65-.06-1.82,0-.75.26-1.14.85-1.19.93,0,0,0,.01-.01.02-.52.85-.8,1.73-.8,1.73-.43,1.36-.56,2.96-.68,2.95Z"/>
    </clipPath>
    <clipPath id="clippath-6">
      <path class="cls-7" d="M50.4,4.1c-.02.54-.15,1.33-.78,1.84-.88.72-2.28.53-2.3.76-.02.24,1.48.16,2.35,1.05.82.84.65,2.09.8,2.09.16,0-.18-1.39.64-2.27.8-.86,2.31-.79,2.29-1-.02-.2-1.48.04-2.34-.67-.59-.49-.68-1.25-.67-1.8Z"/>
    </clipPath>
    <image id="image" width="550" height="550" xlink:href="../../../ral 1035 (1).jpg"/>
  </defs>
  <g id="PRINT_1" data-name="PRINT 1">
    <g>
      <g class="cls-9">
        <use transform="translate(8.83 -4.65) scale(.11)" xlink:href="#image"/>
      </g>
      <g class="cls-1">
        <use transform="translate(-3.81 -4.34) scale(.12 .11)" xlink:href="#image"/>
      </g>
      <g class="cls-4">
        <use transform="translate(18.55 13.68) scale(.07)" xlink:href="#image"/>
      </g>
      <g class="cls-2">
        <use transform="translate(36.56 15.77) scale(.07)" xlink:href="#image"/>
      </g>
      <g class="cls-8">
        <g class="cls-3">
          <use transform="translate(20.26 27.65) scale(.07)" xlink:href="#image"/>
        </g>
      </g>
      <g class="cls-6">
        <use transform="translate(-6.67 -17.84) scale(.07)" xlink:href="#image"/>
      </g>
      <g class="cls-5">
        <use transform="translate(32.38 -5.31) scale(.06)" xlink:href="#image"/>
      </g>
    </g>
  </g>
</svg>